FFmpeg version SVN-r25716, Copyright (c) 2000-2010 the FFmpeg developers  built on Nov 10 2010 12:23:18 with gcc 4.1.2 20080704 (Red Hat 4.1.2-48)  configuration: --enable-libmp3lame --enable-shared --disable-mmx --arch=x86_64  libavutil     50.33. 0 / 50.33. 0  libavcore      0.12. 1 /  0.12. 1  libavcodec    52.94. 4 / 52.94. 4  libavformat   52.84. 0 / 52.84. 0  libavdevice   52. 2. 2 / 52. 2. 2  libavfilter    1.59. 0 /  1.59. 0  libswscale     0.12. 0 /  0.12. 0Seems stream 0 codec frame rate differs from container frame rate: 1800.00 (1800/1) -> 15.00 (15/1)Input #0, mov,mp4,m4a,3gp,3g2,mj2, from '/RAID10/data/converted_video_files/25822.mov':  Duration: 00:00:06.66, start: 0.000000, bitrate: 17347 kb/s    Stream #0.0(eng): Video: qtrle, rgb24, 350x350, 17345 kb/s, 15 fps, 15 tbr, 1800 tbn, 1800 tbc[buffer @ 0x71d9650] w:350 h:350 pixfmt:rgb24[ffsink @ 0x71dc970] auto-inserting filter 'auto-inserted scaler 0' between the filter 'src' and the filter 'out'[scale @ 0x71dcc90] w:350 h:350 fmt:rgb24 -> w:350 h:350 fmt:yuv420p flags:0x4Output #0, flv, to '/RAID10/data/converted_video_files/25822.flv':  Metadata:    encoder         : Lavf52.84.0    Stream #0.0(eng): Video: flv, yuv420p, 350x350, q=2-31, 600 kb/s, 1k tbn, 24 tbcStream mapping:  Stream #0.0 -> #0.0Press [q] to stop encodingframe=   52 fps=  0 q=6.5 size=     291kB time=3.46 bitrate= 689.2kbits/s    frame=  100 fps=  0 q=6.1 Lsize=     487kB time=6.62 bitrate= 601.7kbits/s    video:485kB audio:0kB global headers:0kB muxing overhead 0.364585%